<svg xmlns="http://www.w3.org/2000/svg" id="Laag_1" data-name="Laag 1" viewBox="0 0 341.14 100"><defs><clipPath id="clippath"><path d="M127.37 13.94h15.72v26.89h-15.72z" style="fill:none"/></clipPath><style>.cls-2{fill:#004e9c}.cls-3{fill:#00935c}.cls-4{fill:#004d9b}</style></defs><path d="M132.55 40.37h-4.14v-4.28h4.16c.94 0 1.77-.2 2.48-.59a3.96 3.96 0 0 0 1.64-1.7c.39-.74.59-1.6.59-2.6V14.28h4.74v17.19c0 1.41-.24 2.67-.71 3.78a7.907 7.907 0 0 1-1.99 2.79c-.85.76-1.85 1.35-3 1.74-1.15.4-2.41.59-3.78.59Z" class="cls-2" style="clip-path:url(#clippath)"/><path d="M156.34 40.96c-1.5 0-2.89-.27-4.16-.8a9.838 9.838 0 0 1-3.28-2.23c-.92-.96-1.64-2.08-2.16-3.34-.51-1.27-.76-2.63-.76-4.07s.25-2.81.76-4.07c.52-1.26 1.24-2.37 2.16-3.32.93-.95 2.02-1.7 3.28-2.25 1.27-.54 2.66-.82 4.18-.82s2.9.28 4.16.82c1.27.55 2.37 1.3 3.3 2.25.94.95 1.67 2.06 2.18 3.32.51 1.26.76 2.62.76 4.07s-.26 2.81-.76 4.07c-.51 1.26-1.24 2.38-2.18 3.34-.93.95-2.03 1.7-3.3 2.23s-2.67.8-4.18.8Zm.04-4.31c1.11 0 2.09-.26 2.96-.78.88-.53 1.57-1.26 2.06-2.18.51-.93.76-1.99.76-3.17s-.26-2.25-.76-3.17c-.5-.93-1.18-1.66-2.06-2.2-.87-.53-1.85-.8-2.96-.8s-2.1.27-2.98.8c-.87.53-1.56 1.27-2.06 2.2-.51.92-.76 1.98-.76 3.17s.25 2.24.76 3.17c.51.92 1.19 1.64 2.06 2.18.88.53 1.87.78 2.98.78ZM175.46 40.37h-4.64V20.64h4.41v3.07c.38-.71.9-1.34 1.57-1.89.66-.54 1.43-.98 2.31-1.3a8.36 8.36 0 0 1 2.85-.48c2.65 0 4.63.85 5.94 2.54 1.32 1.68 1.99 4.07 1.99 7.16v10.62h-4.64V29.84c0-1.96-.42-3.37-1.24-4.22-.82-.86-1.92-1.3-3.32-1.3-.91 0-1.76.24-2.56.71-.79.46-1.43 1.13-1.93 2.01-.49.88-.73 1.97-.73 3.27v10.06ZM204.21 47.86c-1.69 0-3.15-.22-4.35-.65-1.2-.42-2.18-.99-2.94-1.7-.76-.72-1.34-1.52-1.72-2.43-.37-.89-.58-1.8-.63-2.73h4.37c.15.69.41 1.3.78 1.83.37.54.91.97 1.62 1.28.73.32 1.67.48 2.85.48 1.07 0 1.98-.15 2.73-.46.76-.31 1.38-.74 1.85-1.28.47-.53.81-1.15 1.03-1.83.21-.7.32-1.44.32-2.22v-2.01c-.66 1.29-1.6 2.23-2.81 2.85-1.21.6-2.55.9-4.03.9-1.39 0-2.67-.25-3.84-.76a9.106 9.106 0 0 1-3.02-2.1c-.84-.9-1.5-1.95-1.97-3.13s-.71-2.44-.71-3.78.23-2.62.69-3.82c.47-1.21 1.12-2.28 1.95-3.21.84-.94 1.83-1.68 2.98-2.22a8.73 8.73 0 0 1 3.76-.82c1.18 0 2.23.19 3.15.57.93.38 1.72.87 2.37 1.47.65.6 1.15 1.24 1.49 1.91v-3.36h4.41V38.1c0 1.39-.22 2.67-.67 3.86a8.522 8.522 0 0 1-2.01 3.09c-.88.88-1.96 1.57-3.25 2.06-1.29.5-2.76.74-4.43.74Zm-.03-12c.8 0 1.55-.14 2.25-.44.7-.31 1.32-.73 1.85-1.26.53-.54.95-1.16 1.24-1.85.29-.7.44-1.44.44-2.22s-.15-1.51-.44-2.2c-.3-.69-.71-1.29-1.24-1.81-.53-.53-1.14-.95-1.83-1.26-.7-.32-1.46-.48-2.27-.48-1.1 0-2.08.25-2.96.74-.87.49-1.56 1.16-2.08 2.01-.51.85-.76 1.85-.76 3s.25 2.1.76 2.98c.52.87 1.21 1.55 2.08 2.04.88.5 1.86.74 2.96.74ZM135.54 78.87h-4.77V52.78h4.11l14.21 18.26V52.78h4.76v26.09h-4.09l-14.21-18.24v18.24ZM178.43 68.68c0 .24 0 .47-.02.69-.01.22-.04.51-.08.88h-15.41c.16 1.07.51 1.99 1.03 2.75.52.75 1.16 1.33 1.93 1.74.76.4 1.6.59 2.52.59 1.17 0 2.12-.23 2.85-.69.74-.47 1.27-1.12 1.6-1.95h5.06c-.24.88-.64 1.73-1.2 2.54-.56.82-1.24 1.54-2.04 2.18-.8.64-1.73 1.14-2.77 1.51-1.05.37-2.18.55-3.4.55-1.49 0-2.86-.27-4.11-.8a10.02 10.02 0 0 1-3.25-2.25c-.91-.96-1.61-2.08-2.12-3.34-.51-1.27-.76-2.62-.76-4.05s.25-2.81.76-4.07c.51-1.26 1.21-2.37 2.12-3.32.92-.95 2-1.7 3.25-2.25 1.25-.54 2.62-.82 4.11-.82s2.83.28 4.05.82c1.22.53 2.27 1.27 3.15 2.22.88.93 1.55 2.01 2.02 3.23.47 1.21.71 2.5.71 3.86Zm-15.32-2.03h10.58c-.07-.74-.34-1.4-.84-2.01-.49-.61-1.11-1.1-1.87-1.47-.76-.38-1.6-.57-2.5-.57-.79 0-1.54.15-2.25.44-.72.28-1.35.72-1.89 1.32-.53.6-.95 1.37-1.22 2.29ZM190.33 79.47c-1.39 0-2.67-.27-3.84-.8a8.9 8.9 0 0 1-3.02-2.23c-.84-.96-1.5-2.08-1.97-3.34-.47-1.27-.71-2.63-.71-4.07s.23-2.81.69-4.07 1.11-2.37 1.95-3.32c.85-.95 1.86-1.7 3.04-2.25 1.18-.54 2.49-.82 3.93-.82 1.07 0 2.03.19 2.9.57.88.38 1.63.87 2.27 1.45.63.57 1.13 1.17 1.47 1.8l-.1-2.04v-8.46h4.62v27h-4.41v-3.32c-.38.69-.91 1.33-1.57 1.93-.65.6-1.41 1.08-2.29 1.43-.88.37-1.87.55-2.98.55Zm.86-4.28c.8 0 1.55-.15 2.25-.46.7-.32 1.32-.75 1.85-1.32.53-.56.95-1.21 1.24-1.97.31-.75.46-1.56.46-2.43s-.15-1.69-.44-2.43c-.3-.74-.71-1.38-1.24-1.95-.53-.56-1.16-1-1.85-1.32-.7-.32-1.46-.48-2.27-.48-1.1 0-2.08.27-2.96.8s-1.58 1.26-2.1 2.18c-.51.92-.76 1.98-.76 3.19s.25 2.21.74 3.15c.51.93 1.19 1.67 2.06 2.22.88.53 1.88.8 3.02.8ZM225.77 68.68c0 .24 0 .47-.02.69-.01.22-.04.51-.08.88h-15.41c.16 1.07.51 1.99 1.03 2.75.52.75 1.16 1.33 1.93 1.74.76.4 1.6.59 2.52.59 1.17 0 2.12-.23 2.85-.69.74-.47 1.27-1.12 1.6-1.95h5.06c-.24.88-.64 1.73-1.2 2.54-.56.82-1.24 1.54-2.04 2.18-.8.64-1.73 1.14-2.77 1.51-1.05.37-2.18.55-3.4.55-1.49 0-2.86-.27-4.11-.8a10.02 10.02 0 0 1-3.25-2.25c-.91-.96-1.61-2.08-2.12-3.34-.51-1.27-.76-2.62-.76-4.05s.25-2.81.76-4.07c.51-1.26 1.21-2.37 2.12-3.32.92-.95 2-1.7 3.25-2.25 1.25-.54 2.62-.82 4.11-.82s2.83.28 4.05.82c1.22.53 2.27 1.27 3.15 2.22.88.93 1.55 2.01 2.02 3.23.47 1.21.71 2.5.71 3.86Zm-15.32-2.03h10.58c-.07-.74-.34-1.4-.84-2.01-.49-.61-1.11-1.1-1.87-1.47-.76-.38-1.6-.57-2.5-.57-.79 0-1.54.15-2.25.44-.72.28-1.35.72-1.89 1.32-.53.6-.95 1.37-1.22 2.29ZM234.19 78.87h-4.64V59.14H234v3.57c.46-1.08 1.13-1.95 2.02-2.6.89-.65 1.98-.97 3.27-.97h2.1v3.99h-1.85c-1.06 0-2 .26-2.81.78-.8.51-1.43 1.25-1.87 2.22-.45.97-.67 2.16-.67 3.57v9.17ZM249.37 78.87h-4.64V51.85h4.64v27.02ZM262.66 79.47c-1.33 0-2.55-.27-3.69-.8a8.97 8.97 0 0 1-2.96-2.23c-.83-.96-1.48-2.08-1.95-3.34-.46-1.27-.69-2.63-.69-4.07s.23-2.81.71-4.07c.47-1.26 1.12-2.37 1.95-3.32.84-.95 1.82-1.7 2.94-2.25 1.13-.54 2.35-.82 3.67-.82 1.61 0 3.05.35 4.3 1.05 1.26.7 2.2 1.66 2.83 2.88v-3.34h4.41v19.73h-4.41v-3.32a6.722 6.722 0 0 1-2.83 2.88c-1.25.69-2.67 1.03-4.28 1.03Zm1.13-4.3c.8 0 1.55-.15 2.25-.46.7-.32 1.32-.75 1.85-1.3.53-.56.95-1.21 1.24-1.97.29-.75.44-1.56.44-2.43s-.15-1.67-.46-2.41c-.3-.75-.71-1.4-1.24-1.97-.53-.56-1.14-1-1.83-1.32-.7-.32-1.45-.48-2.25-.48-1.07 0-2.04.26-2.92.78-.87.51-1.57 1.22-2.1 2.14-.53.92-.78 2-.78 3.25s.27 2.38.8 3.3c.53.92 1.24 1.62 2.12 2.12.88.49 1.84.73 2.88.73ZM284.28 78.87h-4.64V59.14h4.41v3.07c.38-.71.9-1.34 1.57-1.89.66-.54 1.43-.98 2.31-1.3a8.36 8.36 0 0 1 2.85-.48c2.65 0 4.63.85 5.94 2.54 1.32 1.68 1.99 4.07 1.99 7.16v10.62h-4.64V68.34c0-1.96-.42-3.37-1.24-4.22-.82-.86-1.92-1.3-3.32-1.3-.91 0-1.76.24-2.56.71-.79.46-1.43 1.13-1.93 2.01-.49.88-.73 1.97-.73 3.27v10.06ZM312.11 79.47c-1.39 0-2.67-.27-3.84-.8a8.9 8.9 0 0 1-3.02-2.23c-.84-.96-1.5-2.08-1.97-3.34-.47-1.27-.71-2.63-.71-4.07s.23-2.81.69-4.07 1.11-2.37 1.95-3.32c.85-.95 1.86-1.7 3.04-2.25 1.18-.54 2.49-.82 3.93-.82 1.07 0 2.03.19 2.9.57.88.38 1.63.87 2.27 1.45.63.57 1.13 1.17 1.47 1.8l-.1-2.04v-8.46h4.62v27h-4.41v-3.32c-.38.69-.91 1.33-1.57 1.93-.65.6-1.41 1.08-2.29 1.43-.88.37-1.87.55-2.98.55Zm.86-4.28c.8 0 1.55-.15 2.25-.46.7-.32 1.32-.75 1.85-1.32.53-.56.95-1.21 1.24-1.97.31-.75.46-1.56.46-2.43s-.15-1.69-.44-2.43c-.3-.74-.71-1.38-1.24-1.95-.53-.56-1.16-1-1.85-1.32-.7-.32-1.46-.48-2.27-.48-1.1 0-2.08.27-2.96.8s-1.58 1.26-2.1 2.18c-.51.92-.76 1.98-.76 3.19s.25 2.21.74 3.15c.51.93 1.19 1.67 2.06 2.22.88.53 1.88.8 3.02.8Z" class="cls-2"/><path d="M43.67 71.06c2.98-.05 5.35-2.5 5.3-5.47a5.384 5.384 0 0 0-5.47-5.3c-2.98.05-5.35 2.5-5.3 5.47v.01a5.374 5.374 0 0 0 5.46 5.29h.02ZM60.83 100l4.12-.07c-2.71-2.64-4.13-.31-4.23-3.19l-.24-14.21c0-2.95-2.36-5.32-6.93-5.23l-15.18.31.31 18.89c0 2.16-3.27 2.29-3.32.25 0-1.65 1.72-.9 1.65-4.63-.08-2.76-2.39-4.92-5.15-4.84-.08 0-.16 0-.24.01-2.7-.02-4.89 2.16-4.91 4.85v.07c.17 10.57 21.38 7.37 21.26 1.13l-.21-13.07c0-1.96 3.68-2.09 3.71-.2l.24 14.36c.04 2.34 5.59 5.6 9.12 5.55ZM56.41 28.94a5.393 5.393 0 0 0-5.29 5.49 5.393 5.393 0 0 0 5.49 5.29 5.393 5.393 0 0 0 5.29-5.49 5.38 5.38 0 0 0-5.49-5.29ZM39.27 0l-4.13.07c2.72 2.62 4.13.3 4.23 3.17l.24 14.22c0 2.95 2.36 5.32 6.93 5.23l15.24-.27-.37-18.88c-.07-2.14 3.29-2.29 3.32-.25 0 1.65-1.71.9-1.65 4.63a5.03 5.03 0 0 0 5.26 4.78h.15c2.71 0 4.91-2.2 4.91-4.91v-.01C73.22-2.73 52.02.47 52.12 6.69l.23 13.07c0 1.96-3.7 2.09-3.73.2l-.24-14.31c-.04-2.44-5.59-5.64-9.1-5.64ZM71.06 56.05a5.384 5.384 0 0 0-5.47-5.3c-2.98.05-5.35 2.5-5.3 5.47.05 2.98 2.5 5.35 5.47 5.3h.01c2.97-.05 5.34-2.5 5.29-5.47ZM100 38.89l-.07-4.13c-2.62 2.72-.3 4.15-3.17 4.23l-14.25.2c-2.95 0-5.32 2.36-5.23 6.93l.27 15.24 18.88-.32c2.17 0 2.29 3.29.25 3.32-1.65 0-.9-1.71-4.63-1.65-2.76.1-4.92 2.42-4.82 5.19 0 .07 0 .14.01.22-.02 2.7 2.16 4.89 4.85 4.91h.07c10.55-.17 7.35-21.38 1.13-21.26l-13.07.21c-1.98 0-2.1-3.68-.21-3.71L94.4 48c2.4 0 5.66-5.56 5.6-9.09ZM28.88 43.29c.05 2.98 2.5 5.35 5.47 5.3 2.98-.05 5.35-2.5 5.3-5.47a5.384 5.384 0 0 0-5.47-5.3h-.01a5.402 5.402 0 0 0-5.29 5.47ZM0 60.45v4.13c2.64-2.72.31-4.15 3.19-4.23l14.22-.24c2.93 0 5.31-2.36 5.23-6.93l-.27-15.24-18.89.32c-2.16 0-2.29-3.29-.25-3.32 1.67 0 .9 1.71 4.63 1.65 2.77-.1 4.94-2.43 4.84-5.2 0-.07 0-.13-.01-.2 0-2.7-2.18-4.9-4.88-4.91h-.04C-2.8 26.45.4 47.66 6.64 47.54l13.07-.21c1.96 0 2.09 3.68.2 3.73l-14.35.24C3.2 51.39-.06 56.92 0 60.45Z" class="cls-4"/><path d="M60.69 68.93a5.396 5.396 0 0 0-.12-7.62 5.396 5.396 0 0 0-7.62.12 5.396 5.396 0 0 0 .12 7.62 5.372 5.372 0 0 0 7.6-.11l.02-.02ZM93.28 77.25l2.82-2.96c-3.78 0-3.13 2.71-5.21.71l-10.22-9.88c-2.13-2.05-5.43-2.09-8.61 1.2L61.48 77.28 75.05 90.4c1.57 1.51-.71 3.94-2.16 2.53-1.2-1.16.56-1.85-2.12-4.44a5 5 0 0 0-7.22.41c-1.92 1.9-1.94 5-.03 6.92l.03.03c7.59 7.35 20.32-9.88 15.85-14.24l-9.34-9.09c-1.41-1.41 1.13-4.09 2.48-2.82l10.33 9.98c1.72 1.72 7.94.11 10.4-2.43ZM39.92 30.13c-2.07 2.14-2.01 5.55.12 7.62s5.55 2.01 7.62-.12a5.396 5.396 0 0 0-.12-7.62c-2.14-2.06-5.55-2-7.62.13ZM7.34 21.8l-2.82 2.96c3.78 0 3.13-2.71 5.21-.71l10.23 9.88c2.12 2.06 5.42 2.09 8.59-1.2l10.6-10.95L25.51 8.64c-1.55-1.51.71-3.94 2.16-2.53 1.2 1.16-.56 1.85 2.12 4.44a5 5 0 0 0 7.22-.41 4.88 4.88 0 0 0 .05-6.9l-.05-.05c-7.59-7.35-20.32 9.88-15.83 14.24l9.4 9.09c1.41 1.41-1.13 4.09-2.5 2.82L17.75 19.31c-1.74-1.67-7.96-.06-10.4 2.48ZM69.44 38.94a5.396 5.396 0 0 0-7.62.12 5.396 5.396 0 0 0 .12 7.62 5.396 5.396 0 0 0 7.62-.12 5.372 5.372 0 0 0-.11-7.6l-.02-.02ZM77.78 6.35 74.8 3.53c.07 3.8 2.72 3.15.72 5.22l-9.95 10.16c-2.05 2.12-2.09 5.43 1.2 8.61L77.79 38.1l13.18-13.57c1.51-1.57 3.95.69 2.53 2.16-1.14 1.19-1.85-.56-4.43 2.1a5.009 5.009 0 0 0 .23 7.08c.06.05.12.11.18.16a4.9 4.9 0 0 0 6.94.01l.01-.01c7.34-7.59-9.88-20.32-14.25-15.85l-9.14 9.45c-1.41 1.41-4.08-1.13-2.82-2.48l9.98-10.33c1.74-1.79.11-8.03-2.41-10.47ZM30.65 59.71c2.14 2.07 5.55 2.01 7.62-.12s2.01-5.55-.12-7.62a5.396 5.396 0 0 0-7.62.12c-2.06 2.14-2 5.55.13 7.62ZM22.31 92.29l2.98 2.82c-.07-3.78-2.72-3.15-.72-5.21l9.88-10.23c2.05-2.12 2.09-5.42-1.2-8.61L22.29 60.48 9.14 74.12c-1.41 1.55-3.91-.76-2.48-2.17 1.14-1.19 1.85.58 4.43-2.1a4.985 4.985 0 0 0-.23-7.06c-.06-.06-.12-.11-.18-.16-1.9-1.92-5-1.94-6.92-.03l-.03.03c-7.34 7.61 9.88 20.33 14.25 15.85l9.09-9.34c1.41-1.41 4.08 1.13 2.82 2.5l-10.03 10.2c-1.68 1.79-.06 8.01 2.47 10.46Z" class="cls-3"/></svg>